<?xml version="1.0" encoding="UTF-8"?>
<svg width="39px" height="39px" viewBox="0 0 39 39" version="1.1" xmlns="http://www.w3.org/2000/svg" xmlns:xlink="http://www.w3.org/1999/xlink">
    <!-- Generator: Sketch 42 (36781) - http://www.bohemiancoding.com/sketch -->
    <title>Fill 1</title>
    <desc>Created with Sketch.</desc>
    <defs></defs>
    <g id="Page-1" stroke="none" stroke-width="1" fill="none" fill-rule="evenodd">
        <g id="70-All-Purpose-Line-Icons" transform="translate(-408.000000, -472.000000)" fill="#000000">
            <g id="X" transform="translate(408.000000, 472.000000)">
                <path d="M20.6582145,19.3595 L38.5732145,1.4445 C38.9032145,1.1145 38.9032145,0.5785 38.5732145,0.2475 C38.2422145,-0.0825 37.7062145,-0.0825 37.3762145,0.2475 L19.4612145,18.1625 L1.54621452,0.2475 C1.21621452,-0.0825 0.680214515,-0.0825 0.349214515,0.2475 C0.0192145152,0.5785 0.0192145152,1.1145 0.349214515,1.4445 L18.2642145,19.3595 L0.349214515,37.2745 C0.0192145152,37.6045 0.0192145152,38.1405 0.349214515,38.4715 C0.515214515,38.6365 0.731214515,38.7195 0.948214515,38.7195 C1.16421452,38.7195 1.38121452,38.6365 1.54621452,38.4715 L19.4612145,20.5565 L37.3762145,38.4715 C37.5412145,38.6365 37.7582145,38.7195 37.9742145,38.7195 C38.1912145,38.7195 38.4082145,38.6365 38.5732145,38.4715 C38.9032145,38.1405 38.9032145,37.6045 38.5732145,37.2745 L20.6582145,19.3595 Z" id="Fill-1"></path>
            </g>
        </g>
    </g>
</svg>