<?xml version="1.0" encoding="UTF-8"?>
<svg width="41px" height="30px" viewBox="0 0 41 30" version="1.1" xmlns="http://www.w3.org/2000/svg" xmlns:xlink="http://www.w3.org/1999/xlink">
    <!-- Generator: Sketch 42 (36781) - http://www.bohemiancoding.com/sketch -->
    <title>Fill 3</title>
    <desc>Created with Sketch.</desc>
    <defs></defs>
    <g id="Page-1" stroke="none" stroke-width="1" fill="none" fill-rule="evenodd">
        <g id="70-All-Purpose-Line-Icons" transform="translate(-646.000000, -347.000000)" fill="#172C41">
            <g id="Users" transform="translate(646.000000, 347.000000)">
                <path d="M27.6444,28.3087 L27.2324,26.3527 C26.9184,24.8617 26.3524,23.4767 25.5994,22.2197 C26.3734,22.4207 27.1744,22.5337 27.9944,22.5337 L28.0124,22.5337 C30.1204,22.5297 32.1154,21.8377 33.7604,20.5777 C35.9434,22.0417 37.5694,24.3097 38.1424,27.0087 L38.4144,28.2897 L27.6444,28.3087 Z M2.2274,26.7007 C2.8904,23.5547 4.7944,20.9157 7.3494,19.2257 C9.1654,20.6327 11.4364,21.4787 13.9054,21.4787 C16.3734,21.4787 18.6434,20.6327 20.4584,19.2287 C23.0114,20.9187 24.9144,23.5557 25.5754,26.7007 L25.9144,28.3077 L1.8894,28.3077 L2.2274,26.7007 Z M13.9054,1.6937 C18.8944,1.6937 22.9514,5.7507 22.9514,10.7397 C22.9514,15.7277 18.8944,19.7847 13.9054,19.7847 C8.9174,19.7847 4.8594,15.7277 4.8594,10.7397 C4.8594,5.7507 8.9174,1.6937 13.9054,1.6937 L13.9054,1.6937 Z M27.9834,5.1997 L27.9974,5.1997 C30.0804,5.1997 32.0404,6.0097 33.5174,7.4807 C34.9964,8.9547 35.8144,10.9177 35.8174,13.0077 C35.8214,15.0957 35.0114,17.0617 33.5364,18.5407 C32.0624,20.0207 30.0994,20.8377 28.0094,20.8407 L27.9944,20.8407 C25.9114,20.8407 23.9514,20.0317 22.4754,18.5607 C22.2644,18.3507 22.0694,18.1297 21.8874,17.8997 C23.5954,15.9967 24.6454,13.4917 24.6454,10.7397 C24.6454,9.2177 24.3224,7.7717 23.7494,6.4587 C25.0004,5.6457 26.4564,5.2027 27.9834,5.1997 L27.9834,5.1997 Z M39.7984,26.6577 C39.1614,23.6557 37.3994,21.1187 35.0274,19.4127 C36.6294,17.6527 37.5144,15.3987 37.5104,13.0047 C37.5054,10.4627 36.5124,8.0747 34.7114,6.2817 C32.9154,4.4917 30.5314,3.5067 27.9974,3.5067 L27.9804,3.5067 C26.1694,3.5107 24.4424,4.0247 22.9474,4.9677 C21.0374,1.9857 17.7024,-0.0003 13.9054,-0.0003 C7.9844,-0.0003 3.1654,4.8177 3.1654,10.7397 C3.1654,13.5717 4.2754,16.1437 6.0734,18.0637 C3.3344,19.9997 1.2974,22.9057 0.5714,26.3527 L0.0184,28.9807 C-0.0346,29.2297 0.0294,29.4897 0.1894,29.6877 C0.3504,29.8857 0.5914,30.0007 0.8464,30.0007 L39.4614,29.9817 C39.7164,29.9807 39.9574,29.8657 40.1174,29.6667 C40.2784,29.4687 40.3404,29.2077 40.2874,28.9587 L39.7984,26.6577 Z" id="Fill-3"></path>
            </g>
        </g>
    </g>
</svg>