<?xml version="1.0" encoding="UTF-8"?>
<svg width="76px" height="66px" viewBox="0 0 76 66" version="1.1" xmlns="http://www.w3.org/2000/svg" xmlns:xlink="http://www.w3.org/1999/xlink">
    <!-- Generator: Sketch 42 (36781) - http://www.bohemiancoding.com/sketch -->
    <title>logo</title>
    <desc>Created with Sketch.</desc>
    <defs></defs>
    <g id="iwith" stroke="none" stroke-width="1" fill="none" fill-rule="evenodd">
        <g id="Desktop" transform="translate(-73.000000, -46.000000)" fill="#000000">
            <g id="header" transform="translate(73.000000, 46.000000)">
                <g id="nav">
                    <path d="M13.1692085,6.51399702 C13.1692085,7.38756163 12.9928183,8.2023164 12.6400326,8.95828577 C12.2872469,9.71425514 11.816873,10.3862178 11.2288968,10.974194 C10.6409207,11.5621702 9.96055844,12.0241445 9.18778975,12.3601309 C8.41502106,12.6961173 7.59186676,12.864108 6.71830216,12.864108 C5.84473755,12.864108 5.02998279,12.6961173 4.27401342,12.3601309 C3.51804405,12.0241445 2.84608135,11.5621702 2.25810518,10.974194 C1.670129,10.3862178 1.20815465,9.71425514 0.872168262,8.95828577 C0.536181875,8.2023164 0.368191202,7.38756163 0.368191202,6.51399702 C0.368191202,5.64043242 0.536181875,4.80887859 0.872168262,4.01931058 C1.20815465,3.22974257 1.670129,2.54098081 2.25810518,1.95300463 C2.84608135,1.36502845 3.51804405,0.903054102 4.27401342,0.567067715 C5.02998279,0.231081328 5.84473755,0.0630906549 6.71830216,0.0630906549 C7.59186676,0.0630906549 8.41502106,0.231081328 9.18778975,0.567067715 C9.96055844,0.903054102 10.6409207,1.36502845 11.2288968,1.95300463 C11.816873,2.54098081 12.2872469,3.22974257 12.6400326,4.01931058 C12.9928183,4.80887859 13.1692085,5.64043242 13.1692085,6.51399702 Z M18.3408582,24.0406395 L26.1432983,50.7793387 L33.2443955,25.9254986 C34.0041874,23.3246722 34.5667173,21.5494157 34.9320019,20.5996757 C35.2972865,19.6499357 35.9840112,18.7440435 36.9921968,17.8819718 C38.0003823,17.0199002 39.3811373,16.5888708 41.1345034,16.5888708 C42.9170923,16.5888708 44.3124585,17.0199002 45.320644,17.8819718 C46.3288295,18.7440435 47.037471,19.6791581 47.4465898,20.6873436 C47.8557086,21.6955291 48.425544,23.4415633 49.1561132,25.9254986 L56.2572104,50.7793387 L64.1473183,24.0406395 C64.6733281,22.1119367 65.0970519,20.7165705 65.4185024,19.8544988 C65.7399528,18.9924272 66.2805659,18.2326466 67.0403579,17.5751343 C67.8001499,16.917622 68.8959872,16.5888708 70.3279029,16.5888708 C71.7598185,16.5888708 73.0017676,17.0856504 74.0537872,18.0792245 C75.1058069,19.0727987 75.6318088,20.2416919 75.6318088,21.5859392 C75.6318088,22.8132955 75.1788627,24.6689134 74.2729569,27.1528487 L64.4979898,55.820241 C63.6505295,58.2457307 62.9930271,59.9990705 62.5254628,61.0803129 C62.0578985,62.1615554 61.3200347,63.1258922 60.3118492,63.9733525 C59.3036637,64.8208128 57.9229086,65.2445366 56.1695425,65.2445366 C54.3577309,65.2445366 52.9331423,64.7915905 51.895734,63.8856847 C50.8583257,62.9797788 50.0912396,61.8693303 49.5944525,60.5543057 C49.0976655,59.2392812 48.5570524,57.5297749 47.972597,55.4257356 L41.1345034,32.1060831 L34.5155795,55.4257356 C33.6388965,58.6694628 32.6891708,61.116833 31.6663739,62.7679194 C30.643577,64.4190058 28.8464037,65.2445366 26.2748001,65.2445366 C24.9597755,65.2445366 23.8420214,64.9888412 22.9215042,64.4774428 C22.000987,63.9660443 21.2339009,63.2354861 20.6202227,62.2857461 C20.0065446,61.3360061 19.4659315,60.2109464 18.9983672,58.9105332 C18.5308029,57.6101201 18.1655238,56.5800329 17.9025189,55.820241 L8.21521966,27.1528487 C7.25086831,24.464354 6.76869987,22.6087361 6.76869987,21.5859392 C6.76869987,20.3001374 7.28009064,19.1458554 8.30288752,18.1230585 C9.32568441,17.1002616 10.5822446,16.5888708 12.0726058,16.5888708 C14.059754,16.5888708 15.4039812,17.1514007 16.1053276,18.2764772 C16.8066741,19.4015538 17.5518435,21.322922 18.3408582,24.0406395 Z" id="logo"></path>
                </g>
            </g>
        </g>
    </g>
</svg>