<?xml version="1.0" encoding="UTF-8"?>
<svg width="62px" height="56px" viewBox="0 0 62 56" version="1.1" xmlns="http://www.w3.org/2000/svg" xmlns:xlink="http://www.w3.org/1999/xlink">
    <!-- Generator: Sketch 42 (36781) - http://www.bohemiancoding.com/sketch -->
    <title>message</title>
    <desc>Created with Sketch.</desc>
    <defs>
        <path d="M426.699384,42.4141142 C420.736407,38.7896561 416.761905,33.1182163 416.761905,26.2470274 C416.761905,14.1235166 429.156331,5.7349444 442.972225,5.7349444 C456.788119,5.7349444 469.238095,14.0202337 469.238095,26.2470274 C469.238095,38.4738211 456.809524,46.7591104 442.972225,46.7591104 C439.680148,46.7591104 436.470953,46.2842944 433.491543,45.3973307 C433.295702,49.9584572 429.707293,52.9127353 423.666667,52.9127353 C423.855003,52.9127351 427.017685,49.0875054 426.699384,42.4141142 L426.699384,42.4141142 L426.699384,42.4141142 Z" id="path-1"></path>
        <filter x="-50%" y="-50%" width="200%" height="200%" filterUnits="objectBoundingBox" id="filter-2">
            <feOffset dx="1" dy="2" in="SourceAlpha" result="shadowOffsetOuter1"></feOffset>
            <feGaussianBlur stdDeviation="2" in="shadowOffsetOuter1" result="shadowBlurOuter1"></feGaussianBlur>
            <feColorMatrix values="0 0 0 0 0.538929634   0 0 0 0 0.538929634   0 0 0 0 0.538929634  0 0 0 1 0" type="matrix" in="shadowBlurOuter1"></feColorMatrix>
        </filter>
    </defs>
    <g id="icon-artboard" stroke="none" stroke-width="1" fill="none" fill-rule="evenodd">
        <g id="iOS-icon-kit" transform="translate(-1842.000000, -451.000000)">
            <g id="Icon-sets">
                <g id="Leisure-Icons" transform="translate(1380.000000, 400.000000)">
                    <g id="SVGs" transform="translate(49.000000, 48.000000)">
                        <g id="message">
                            <use fill="black" fill-opacity="1" filter="url(#filter-2)" xlink:href="#path-1"></use>
                            <use fill="#000000" fill-rule="evenodd" xlink:href="#path-1"></use>
                        </g>
                    </g>
                </g>
            </g>
        </g>
    </g>
</svg>